<?xml version="1.0" standalone="no"?>
<svg version="1.1" id="Layer_1" xmlns="http://www.w3.org/2000/svg" xmlns:xlink="http://www.w3.org/1999/xlink" x="0px" y="0px" width="595.279px" height="595.281px" viewBox="0 0 595.279 595.281" enable-background="new 0 0 595.279 595.281" xml:space="preserve">
<path id="color_x5F_2" fill="#5333ed" d="M399.456,461.291c-1.14,2.546-2.31,5.079-3.513,7.594c-1.867-2.725-5.635-1.89-8.053-0.4
	c-0.07,0.043-0.122,0.082-0.178,0.123c-0.028,0.018-0.063,0.031-0.091,0.051c-1.054,0.688-1.906,1.615-2.441,2.66
	c-0.452,0.445-0.672,0.93-0.516,1.441c-0.249,1.229-0.051,2.535,0.765,3.762c0.146,0.221,0.313,0.412,0.489,0.588
	c-0.047,0.057-0.085,0.115-0.11,0.178c-1.546,3.643-4.039,8.322-0.67,11.475c-4.972,0-9.941,0-14.912,0c0-25.873,0-51.744,0-77.617
	c0-0.065-0.026-0.119-0.063-0.166c-0.527-8.268-5.215-15.697-13.982-16.207c-0.114-0.024-0.244-0.043-0.41-0.043
	c-3.996,0-7.993,0-11.989,0c-1.994-6.027-2.322-12.377-4.138-18.455c-0.346-1.156-3.237-0.359-2.898,0.775
	c1.738,5.818,2.119,11.883,3.896,17.68c-25.895,0-51.788,0-77.684,0c2.465-12.531,14.432-23.814,17.656-36.082
	c6.002,1.735,11.951,2.071,16.799,0.293c1.132-0.355,2.206-0.861,3.129-1.556c3.405-2.208,5.96-5.853,7.137-11.293
	c5.479,2.151,25.869,1.64,37.015-5.866c0.455-0.307,0.883-0.625,1.297-0.951c4.744,4.057,7.507,16.771,8.59,20.215
	c4.282,13.621,8.486,27.225,14.862,40.048c7.23,14.543,15.499,28.437,22.206,43.274C394.398,448.9,396.818,455.148,399.456,461.291z
	 M389.748,469.079c0.585-0.185,1.094-0.325,1.444-0.418c-0.45-0.005-0.934,0.125-1.442,0.417
	C389.75,469.077,389.749,469.078,389.748,469.079z M400.818,464.4c-0.49,1.066-0.984,2.132-1.486,3.193
	c0.74-0.682,1.498-1.19,2.255-1.519C401.33,465.518,401.069,464.961,400.818,464.4z M348.131,337.338L348.131,337.338
	c-0.151,0.157-0.301,0.316-0.46,0.473c0.206,0.133,0.407,0.279,0.604,0.435C348.185,337.906,348.125,337.594,348.131,337.338z
	 M237.381,394.729c0.009-0.014,0.018-0.029,0.024-0.043c-0.049,0.014-0.098,0.029-0.146,0.043
	C237.3,394.729,237.34,394.729,237.381,394.729z M239.926,348.893c-0.12,0.148-0.341,0.311-0.696,0.475
	c-6.976,3.219-13.791,6.301-21.604,6.611c-1.017,0.041-2.136,0.082-3.306,0.104c-0.563,0.278-1.324,0.504-1.646,0.453
	c-2.307-0.371-4.438,5.66-5.409,8.703l-3.655,13.945c-0.544,2.555-1.041,5.117-1.52,7.681c-3.163,16.997-5.479,34.138-8.575,51.147
	c-2.026,11.135-9.529,30.93,1.137,39.99c2.588,2.198,5.665,3.232,8.951,3.871c0.199,0.039,0.508,0.075,0.858,0.125
	c0-23.359,0-46.718,0-70.076c0-0.09,0.028-0.176,0.068-0.258c0.528-9.059,6.04-17.173,16.069-16.928
	c0.458,0.012,0.705,0.122,0.81,0.281c0.309-0.172,0.646-0.287,0.953-0.287c4.381,0,8.762,0,13.143,0
	c-0.077-0.084-0.076-0.202,0.043-0.364c11.131-15.046,12.909-33.2,12.301-51.343C245.347,345.211,242.654,347.184,239.926,348.893z
	 M221.144,354.107c2.543-0.385,4.972-1.014,7.358-1.816C226.113,352.918,223.548,353.543,221.144,354.107z"></path>
<path id="color_x5F_1" d="M292.571,300.083c-4.446,1.517-7.893,1.858-12.354-0.106c-0.01-0.004-0.02-0.006-0.028-0.012
	c-0.006-0.002-0.015-0.002-0.021-0.006c-0.729-0.363-2.521,0.143-2.583,0.883c-0.405,4.916,0.668,14.172,7.512,13.125
	c2.659-0.406,4.185-3.236,5.421-5.32c1.548-2.604,2.921-5.379,4.067-8.184C294.957,299.551,292.823,299.997,292.571,300.083z
	 M285.195,312.336c-1.529,1.532-3.687-3.574-3.961-4.457c-0.555-1.777-0.816-3.719-0.823-5.617c3.704,1.068,7.1,0.768,10.802-0.264
	C289.721,305.598,287.886,309.637,285.195,312.336z M292.577,274.007c-1.232-1.28-2.055-2.922-1.679-4.728
	c0.22-1.054,3.151-1.514,2.905-0.331c-0.315,1.52,0.429,2.825,1.454,3.893C296.083,273.697,293.326,274.787,292.577,274.007z
	 M267.911,284.79c0.824,0.855-1.932,1.945-2.682,1.166c-1.233-1.28-2.058-2.921-1.68-4.727c0.222-1.054,3.153-1.513,2.906-0.331
	C266.14,282.417,266.884,283.723,267.911,284.79z M267.005,274.095c1.971-0.047,1.434,2.144-0.24,2.184
	c-2.529,0.061-4.613,1.215-5.934,3.4c-0.391,0.647-1.124,0.999-1.884,0.898c-0.558-0.073-1.282-0.624-0.896-1.264
	C260.002,276.084,263.216,274.185,267.005,274.095z M448.822,488.762c-10.387,0-20.772,0-31.158,0
	c2.982-2.043,5.29-6.174,7.453-8.332c0.426-0.426,0.397-0.759,0.146-0.984c-0.012-0.025-0.016-0.051-0.028-0.076
	c-1.274-2.422-3.252-3.129-5.247-2.579c-1.196-2.247-2.943-3.558-4.871-3.644c0.029-0.139,0.016-0.287-0.059-0.439
	c-1.57-3.275-4.047-4.432-6.599-3.563c-0.993-1.906-2.309-3.033-3.766-3.392c-0.767-1.647-1.511-3.308-2.237-4.974
	c3.542-7.949,6.817-16.014,10.064-23.949c0.411-1.002-2.497-0.662-2.904,0.336c-2.77,6.766-5.563,13.627-8.527,20.43
	c-2.584-6.102-5.037-12.266-7.782-18.289c-7.454-16.355-17.221-31.57-24.448-47.986c-5.798-13.164-9.323-27.109-14.021-40.666
	c-1.276-3.688-3.079-9.645-6.563-12.412c-0.195-0.154-0.396-0.301-0.604-0.436c0.159-0.154,0.309-0.313,0.46-0.473
	c4.312-4.498,5.627-10.199,5.054-15.693c0.354-3.189-0.285-6.366-2.557-9.137c-0.123-0.15-0.26-0.287-0.39-0.43
	c-0.75-1.422-1.606-2.748-2.547-3.932c-4.477-5.63-8.822-5.4-10.479-6.477c0.485-1.147,0.944-2.313,1.255-3.542
	c0.971-3.829,0.755-8.07,0.393-11.967c-0.677-7.247-4.433-13.017-10.345-17.146c-6.729-4.698-13.857-6.875-17.155-15.006
	c-2.786-6.868-3.339-14.384-7.388-20.749c-7.105-11.17-21.229-16.928-33.849-18.499c-14.153-1.761-28.469,2.425-39.183,11.846
	c-14.647,4.981-25.205,16.753-29.197,31.713c-1.767,6.621-1.944,13.883,0.145,20.442c0.979,3.077,3.575,5.605,4.332,8.657
	c0.996,4.016,4.593,7.704,3.634,12.035c-1.044,4.709-6.229,8.802-8.314,13.219c-0.963,2.039-1.146,4.186-1.141,6.393
	c0.007,2.771,2.865,4.482,2.649,7.416c-0.137,1.863-3.084,4.063-4.235,5.449c-1.144,1.375-2.023,2.938-2.769,4.559
	c-2.901,3.658-5.931,8.332-8.032,14.379c-4.817,13.854,8.771,24.568,13.009,27.504c-3.806,16.582-5.891,33.609-8.683,50.365
	c-1.534,9.205-3.623,18.317-5.128,27.521c-1.063,6.509-1.306,13.917,2.195,19.765c1.955,3.264,5.262,5.232,8.813,6.323
	c0.897,0.276,6.145,0.728,6.243,1.862c0,1.52,0,3.037,0,4.554c-22.243,0-44.486,0-66.729,0c-1.232,0-3.027,1.871-1.066,1.871
	c71.563,0,143.123,0,214.686,0c32.135,0,64.271,0,96.405,0C448.989,490.633,450.783,488.762,448.822,488.762z M422.261,480.053
	c-1.138,1.221-2.126,2.588-3.176,3.879c-0.681,0.838-2.47,3.387-3.932,3.864c0.299-2.187,1.393-4.323,2.51-6.162
	c0.626-1.03,1.479-2.211,2.535-2.841C421.089,478.266,421.795,479.229,422.261,480.053z M417.297,477.961
	c0.039,0.082,0.088,0.152,0.145,0.217c-0.143,0.117-0.283,0.236-0.421,0.365c-0.24,0.225-0.474,0.482-0.705,0.741
	c-0.364,0.071-0.701,0.222-0.92,0.458c-1.737,1.891-4.879,7.846-7.972,7.896c0.273-2.961,1.612-5.863,3.077-8.389
	c0.831-1.433,1.88-2.807,3.231-3.777C415.388,474.284,416.714,476.746,417.297,477.961z M412.158,473.484
	c0.063,0.133,0.157,0.238,0.266,0.326c-0.614,0.332-1.229,0.776-1.833,1.369c-0.816,0.801-1.597,1.735-2.311,2.76
	c-0.12,0.068-0.231,0.147-0.319,0.244c-1.422,1.572-3.255,5.942-5.678,6.035c0.279-3.199,1.729-6.381,3.281-9.119
	c0.857-1.518,1.933-3.009,3.368-4.023C410.416,470.027,411.659,472.441,412.158,473.484z M406.026,470.596
	c-0.269,0.229-0.533,0.475-0.795,0.75c-0.605,0.635-1.189,1.356-1.739,2.139c-1.788,2.209-4.731,7.457-7.634,7.5
	c0.276-3.202,1.729-6.385,3.28-9.127c0.858-1.516,1.934-3.006,3.368-4.02c0.03-0.021,0.06-0.033,0.088-0.051
	c0.309,0.092,0.76,0.047,1.203-0.07c0.891,0.434,1.59,1.809,1.936,2.528C405.802,470.389,405.904,470.504,406.026,470.596z
	 M194.651,478c-10.666-9.061-3.163-28.854-1.137-39.99c3.098-17.009,5.412-34.15,8.575-51.146c0.479-2.563,0.976-5.127,1.52-7.682
	c0.905-4.248,1.941-8.471,3.239-12.613c0.095-0.299,0.237-0.77,0.416-1.332c0.972-3.043,3.104-9.073,5.409-8.702
	c0.322,0.052,1.085-0.175,1.646-0.454c1.17-0.021,2.289-0.061,3.306-0.102c7.813-0.313,14.628-3.394,21.604-6.613
	c0.355-0.164,0.577-0.325,0.697-0.475c2.729-1.709,5.421-3.681,7.922-5.869c0.607,18.143-1.17,36.297-12.302,51.342
	c-0.118,0.162-0.12,0.281-0.043,0.365c-4.381,0-8.762,0-13.143,0c-0.306,0-0.646,0.115-0.953,0.287
	c-0.104-0.16-0.351-0.271-0.809-0.281c-10.03-0.246-15.541,7.869-16.07,16.928c-0.04,0.082-0.067,0.167-0.067,0.258
	c0,23.357,0,46.717,0,70.075c-0.353-0.05-0.659-0.086-0.859-0.125C200.316,481.234,197.238,480.199,194.651,478z M281.009,356.904
	c0.521-2.727,0.564-5.506-0.047-8.361c1.022,0.104,2.096-0.029,3.126-0.453c5.948-2.438,3.605-9.859-0.123-13.377
	c-6.309-5.953-17.407-9.863-25.068-6.183c2.777-6.673,2.827-14.063-1.923-21.604c-1.777-2.82-5.433-4.537-7.82-6.805
	c-3.639-3.454-0.387-9.356,0.289-13.456c1.554-9.426-1.103-20.208-5.006-28.713c-0.064-0.142-0.202-0.229-0.379-0.278
	c8.762,1.233,17.088,4.007,26.09,2.784c8.345-1.133,16.416-2.953,23.514-7.444c0.193,0.644,0.396,1.283,0.625,1.907
	c-4.767,1.181-8.881,3.987-11.096,8.957c-1.568,3.52-1.516,7.404-0.236,10.84c-2.099,0.674-3.896,1.912-5.219,3.643
	c-1.652-2.742-4.029-5.073-6.859-6.601c-0.11-0.06-0.257-0.089-0.419-0.096c-0.057-0.01-0.105-0.021-0.172-0.027
	c-7.979-0.767-16.062,1.74-19.521,9.5c-3.148,7.066,0.232,15.605,6.962,19.025c7.282,3.704,17.118,0.902,20.879-6.337
	c2.258-4.347,2.035-9.199,0.185-13.401c0.24-0.11,0.427-0.243,0.497-0.401c0.802-1.786,2.138-3.72,4.029-4.448
	c0.381,0.862,0.839,1.688,1.372,2.468c-0.402,0.258-0.636,0.635-0.445,1.059c0.994,2.216,2.762,4.001,4.249,5.889
	c1.66,2.106,3.85,5.075,0.071,6.059c-1.794,0.467-1.262,2.438,0.527,1.971c3.045-0.792,5.57-2.665,4.147-6.027
	c-0.616-1.457-1.598-2.686-2.623-3.883c6.294,2.927,14.306,1.174,18.705-4.007c1.766,2.776,3.353,5.656,4.544,8.762
	c5.912,15.409-6.174,30.651-20.223,35.647c-1.729,0.615-1.213,2.709,0.557,2.08c0.473-0.168,0.942-0.346,1.408-0.531
	c-0.569,3.551-1.152,7.438,0.381,10.723c1.796,3.848,6.237,6.695,9.469,9.363c-0.234,0.125-0.4,0.27-0.429,0.426
	c-0.851,4.813-2.453,9.439-6.722,12.24C293.438,361.006,285.998,358.598,281.009,356.904z M285.228,266.462
	c0.051-0.323,0.127-0.625,0.196-0.932c0.199-0.007,0.364-0.022,0.384-0.026c0.581-0.107,1.309-0.294,1.703-0.768
	c1.127-1.35,2.461-2.063,4.174-2.367c0.483-0.086,1.436-0.279,1.703-0.769c0.243-0.441-1.037-0.26-1.148-0.24
	c-2.379,0.421-4.604,1.21-6.401,2.734c1.489-4.194,4.944-6.641,9.044-7.634c3.142,7.549,8.546,13.852,13.128,20.64
	c-3.1,5.403-10.188,7.12-16.286,4.02C286.444,278.437,284.364,271.991,285.228,266.462z M297.969,255.994
	c1.054-0.075,2.12-0.071,3.189,0.011c6.036,3.342,9.184,9.733,8.33,16.578c-0.035,0.279-0.102,0.538-0.15,0.807
	C305.261,267.705,300.738,262.162,297.969,255.994z M289.249,254.17c-1.966,1.053-4.032,1.934-6.16,2.666
	C285.466,255.866,287.541,254.956,289.249,254.17z M243.031,257.697c-0.025-0.056-0.054-0.118-0.078-0.17
	c0.257,0.032,0.514,0.063,0.769,0.098C243.51,257.619,243.272,257.645,243.031,257.697z M228.502,352.291
	c-2.388,0.803-4.815,1.432-7.358,1.816C223.548,353.543,226.113,352.918,228.502,352.291z M268.733,273.264
	c6.036,3.342,9.184,9.733,8.33,16.578c-1.102,8.827-10.202,12.382-17.767,8.537c-5.278-2.684-7.357-9.129-6.496-14.658
	C254.05,275.703,261.426,272.702,268.733,273.264z M237.259,394.729c0.051-0.014,0.099-0.029,0.146-0.043
	c0.362-0.113,0.669-0.264,0.794-0.432c11.547-15.609,13.242-34.42,12.504-53.24c-0.006-0.151-0.163-0.24-0.396-0.279
	c1.524-1.51,2.943-3.104,4.217-4.77c0.333-0.152,0.601-0.355,0.701-0.598c0.153-0.372,0.319-0.721,0.492-1.057
	c0.438-0.641,0.859-1.289,1.25-1.948c5.177-6.509,15.075-3.037,21.453,1.374c3.495,2.417,5.672,4.82,6.4,9.171
	c0.628,3.752-2.705,4.291-4.766,2.565c-0.411-1.084-0.91-2.178-1.535-3.285c-0.006-0.289-0.303-0.426-0.703-0.447
	c0.292-0.133,0.553-0.313,0.688-0.57c0.446-0.843,1.182-1.516,1.849-2.184c0.484-0.486-0.419-0.614-0.719-0.6
	c-0.658,0.029-1.45,0.244-1.931,0.725c-0.77,0.771-1.556,1.548-2.069,2.52c-0.188,0.354,0.346,0.42,0.762,0.418
	c-0.394,0.191-0.695,0.461-0.757,0.784c-0.01,0.043-0.021,0.085-0.02,0.13c0.032,1.662,0.73,3.04,1.794,4.018
	c5.811,17.168-13.645,31.42-17.209,47.748c-7.607,0-15.218,0-22.827,0C237.34,394.729,237.3,394.729,237.259,394.729z
	 M401.587,466.076c-0.757,0.328-1.515,0.836-2.255,1.518c0.502-1.062,0.996-2.125,1.486-3.193
	C401.069,464.961,401.33,465.518,401.587,466.076z M393.541,470.581c0.366,0.864,0.428,1.802,0.251,2.696
	c-0.433,0.859-0.872,1.716-1.313,2.57c-1.541,1.592-3.746,0.94-4.677-1.012c-1.034-2.17,0.13-4.488,1.945-5.758
	c0.001,0,0.002-0.001,0.002-0.002c0.51-0.292,0.992-0.421,1.442-0.417C392.194,468.672,393.024,469.359,393.541,470.581z
	 M386.71,486.241c-1.128-2.382,0.393-5.614,1.473-8.03c1.025,0.162,2.146,0.025,3.209-0.289
	C389.896,480.738,388.34,483.518,386.71,486.241z M354.578,359.491c4.282,13.62,8.486,27.224,14.862,40.048
	c7.23,14.543,15.499,28.436,22.206,43.273c2.751,6.086,5.171,12.336,7.81,18.479c-1.14,2.547-2.31,5.08-3.513,7.594
	c-1.867-2.725-5.635-1.889-8.053-0.399c-0.07,0.043-0.122,0.082-0.177,0.122c-0.029,0.018-0.063,0.031-0.092,0.051
	c-1.054,0.688-1.905,1.615-2.441,2.66c-0.237,0.461-0.414,0.943-0.516,1.441c-0.249,1.229-0.051,2.535,0.765,3.762
	c0.146,0.222,0.313,0.412,0.489,0.588c-0.047,0.057-0.084,0.115-0.11,0.178c-1.546,3.643-4.039,8.322-0.67,11.475
	c-4.972,0-9.941,0-14.912,0c0-25.873,0-51.744,0-77.617c0-0.064-0.026-0.118-0.063-0.166c-0.527-8.268-5.215-15.697-13.982-16.207
	c-0.114-0.023-0.244-0.043-0.41-0.043c-3.996,0-7.993,0-11.989,0c-1.994-6.027-2.322-12.377-4.138-18.455
	c-0.346-1.155-3.237-0.359-2.898,0.775c1.738,5.818,2.119,11.883,3.896,17.68c-25.895,0-51.788,0-77.684,0
	c2.466-12.531,14.432-23.813,17.656-36.082c6.002,1.736,11.951,2.072,16.799,0.293c1.104-0.404,2.151-0.922,3.129-1.555
	c3.405-2.209,5.961-5.854,7.137-11.293c5.479,2.15,25.87,1.639,37.015-5.867c0.455-0.307,0.883-0.625,1.297-0.951
	C350.733,343.332,353.495,356.047,354.578,359.491z M234.625,488.762c-9.089,0-18.177,0-27.266,0c0-1.777,0-3.554,0-5.33
	c0-23.213,0-46.425,0-69.638c0.032-0.095,0.056-0.194,0.051-0.3c-0.354-7.584,3.155-17.119,12.119-16.9
	c0.305,0.008,0.643-0.1,0.95-0.264c0.099,0.162,0.349,0.27,0.814,0.27c40.219,0,80.438,0,120.656,0c0.105,0,0.213,0,0.318,0
	c4.145,0,8.288,0,12.434,0c0.035,0,0.072-0.006,0.107-0.01c9.043,0.028,12.823,9.623,12.459,17.441
	c-0.006,0.121,0.021,0.222,0.059,0.313c0,24.805,0,49.61,0,74.416C323.094,488.762,278.86,488.762,234.625,488.762z
	 M387.951,488.762c0.035-0.059,0.07-0.117,0.106-0.174c0.015-0.023,0.027-0.047,0.043-0.07c1.723-2.781,3.37-5.619,4.945-8.506
	c-0.104,0.671-0.169,1.333-0.185,1.973c-0.011,0.409,0.227,0.743,0.63,0.859c2.536,0.732,4.597-0.088,6.388-1.545
	c-0.349,1.342-0.561,2.673-0.592,3.927c-0.01,0.413,0.228,0.737,0.63,0.858c2.084,0.631,3.645,0.275,4.942-0.594
	c-0.25,1.064-0.405,2.125-0.433,3.146c-0.001,0.043,0.012,0.082,0.017,0.123C398.946,488.762,393.449,488.762,387.951,488.762z
	 M412.367,487.137c-0.109,0.553-0.187,1.098-0.211,1.625c-0.618,0-1.236,0-1.854,0C411.031,488.32,411.719,487.768,412.367,487.137z
	 M359.796,220.049c0.017,0.116,0.03,0.231,0.045,0.348c0.282,2.158,0.438,4.385,0.409,6.721c0,0.028,0.009,0.05,0.011,0.076
	c-0.508,0.538-0.587,1.159,0.524,1.159c1.4,0,2.801,0,4.201,0c0.272,2.017,1.696,3.375,3.616,4.291
	c0.269,9.813,23.837,9.43,25.39,0.363c0.039-0.231-0.004-0.413-0.095-0.56c1.813-0.93,3.185-2.247,3.678-4.094
	c0.273,0,0.548,0,0.821,0c0.458,0,0.974-0.251,1.358-0.572c0.859,0.042,2.191-0.463,2.185-1.231
	c-0.15-14.077,6.129-24.665,14.456-35.453c8.197-10.62,14.304-21.248,15.133-34.949c0.801-13.22-2.906-26.587-11.609-36.695
	c-8.831-10.259-22.26-14.642-35.457-14.8c-1.097-0.014-3.085,1.631-1.125,1.654c14.234,0.171,27.334,5.582,36.116,17.018
	c8.809,11.469,10.851,27.457,8.161,41.336c-2.313,11.945-10.014,21.113-17.113,30.547c-7.092,9.42-11.359,19.364-11.448,31.213
	c-10.572,0-21.146,0-31.718,0c-0.408-0.191-0.978-0.179-1.463,0c-0.907,0-1.816,0-2.727,0c0.01-1.828-0.074-3.612-0.242-5.361
	c6.96,0,13.921,0,20.882,0c1.696,0,2.188-2.234,0.228-2.234c-7.123,0-14.246,0-21.37,0c-0.64-4.554-1.879-8.87-3.653-13.046
	c14.579,0,29.159,0,43.74,0c1.696,0,2.188-2.233,0.227-2.233c-4.705,0-9.411,0-14.117,0c0.107-0.135,0.177-0.284,0.173-0.446
	c-0.064-3.075-0.361-6.125-0.119-9.201c0.401-5.089,4.684-6.65,8.709-8.598c4.088-1.977,5.489-5.383,5.333-9.783
	c-0.146-4.103-2.932-6.826-6.919-6.768c-3.046,0.044-5.546,2.137-7.771,4.226c-1.817-6.148-8.834-5.557-10.698,0.127
	c-2.18-1.751-4.064-3.74-7.194-3.575c-3.38,0.178-5.429,2.766-5.932,5.883c-0.708,4.399,1.713,8.888,5.189,11.366
	c2.173,1.549,3.728,2.355,4.762,4.984c1.459,3.707,0.191,8.005-0.382,11.783c-5.336,0-10.672,0-16.009,0
	c-1.33-2.797-2.891-5.54-4.682-8.259c-6.517-9.893-13.256-18.938-15.742-30.793c-2.813-13.398-0.628-28.221,6.813-39.772
	c7.983-12.391,21.99-18.241,36.347-18.414c1.086-0.013,3.082-1.678,1.125-1.654c-12.588,0.15-24.616,3.945-33.958,12.594
	c-10.034,9.29-14.243,23.047-14.309,36.399c-0.064,13.433,4.792,24.875,12.225,35.775
	C352.574,199.357,358.213,208.596,359.796,220.049z M371.856,233.736c2.984,0.693,6.236,0.812,8.205,0.868
	c2.596,0.074,7.084,0.01,10.896-1.043C389.394,238.905,374.239,239.039,371.856,233.736z M394.681,228.353
	c-1.465,5.911-24.347,6.033-26.611,0C376.94,228.353,385.812,228.353,394.681,228.353z M377.271,190.986
	c-0.752-3.06-3.499-4.277-5.828-5.938c-3.398-2.423-4.579-7.232-3.948-11.15c1.001-6.214,7.555,0.781,9.897,2.063
	c0.566,0.31,2.555-0.029,2.604-0.874c0.083-1.403,0.73-7.082,4.028-4.309c1.349,1.135,1.536,3.292,1.694,4.888
	c0.096,0.943,2.269,0.123,2.604-0.177c1.063-0.948,2.078-1.947,3.13-2.91c3.956-3.622,7.426-1.398,8.425,2.564
	c1.606,6.375-3.354,8.901-8.252,11.269c-6.914,3.343-5.694,10.674-5.522,17.133c-3.118,0-6.236,0-9.354,0
	c0.056-0.08,0.101-0.162,0.112-0.25C377.491,199.025,378.316,195.246,377.271,190.986z M399.035,211.383
	c1.962,0,1.47,2.233-0.228,2.233c-7.573,0-15.147,0-22.723,0c-1.962,0-1.47-2.233,0.228-2.233
	C383.887,211.383,391.461,211.383,399.035,211.383z M306.995,149.677c4.439,0,8.881,0,13.322,0c1.961,0,0.134,1.836-1.076,1.836
	c-4.44,0-8.881,0-13.322,0C303.958,151.513,305.785,149.677,306.995,149.677z M308.64,122.17c-0.773-0.773,1.969-1.856,2.69-1.135
	c3.396,3.396,6.791,6.79,10.187,10.187c0.772,0.774-1.971,1.857-2.691,1.135C315.431,128.96,312.034,125.565,308.64,122.17z
	 M321.749,167.382c-3.134,3.135-6.269,6.269-9.402,9.403c-0.788,0.79-3.621,0.588-2.373-0.662c3.134-3.136,6.269-6.27,9.402-9.403
	C320.166,165.93,322.999,166.133,321.749,167.382z M457.546,151.513c-4.438,0-8.88,0-13.319,0c-1.962,0-0.135-1.836,1.075-1.836
	c4.439,0,8.881,0,13.32,0C460.583,149.677,458.756,151.513,457.546,151.513z M443.209,131.55c3.396-3.396,6.79-6.791,10.187-10.188
	c0.675-0.675,3.525-0.723,2.323,0.479c-3.396,3.396-6.79,6.791-10.186,10.187C444.859,132.703,442.007,132.751,443.209,131.55z
	 M454.719,175.852c0.899,0.899-1.852,2.025-2.672,1.204c-3.135-3.134-6.27-6.269-9.403-9.403c-0.899-0.898,1.852-2.024,2.672-1.204
	C448.449,169.583,451.584,172.718,454.719,175.852z" fill="#ffc400"></path>
</svg>